<svg width="35" height="35" viewBox="0 0 35 35" fill="none" xmlns="http://www.w3.org/2000/svg">
<path d="M23 8.62698C23 7.39982 22.4733 6.22293 21.5356 5.35521C20.5979 4.48748 19.3261 4 18 4C16.6739 4 15.4022 4.48748 14.4645 5.35521C13.5268 6.22293 13 7.39982 13 8.62698V22.6185L17.1176 25.3487V32H18.8824V25.3487L23 22.6185V8.62698ZM21.2353 16.452L18.8824 18.6294V16.5881L21.2353 14.4107V16.452ZM14.8015 14.4107L17.1544 16.5881V18.6294L14.8015 16.452V14.4107ZM21.2353 12.0972L18 15.0911L14.7647 12.0292V9.98785L18 12.9818L21.2353 9.98785V12.0972ZM18 5.63305C18.7115 5.63596 19.4024 5.85464 19.9668 6.25559C20.5312 6.65654 20.9381 7.21764 21.125 7.85298L18 10.7363L14.875 7.85298C15.0551 7.21132 15.459 6.64261 16.024 6.23508C16.5891 5.82754 17.2836 5.60395 18 5.59902V5.63305ZM14.7647 21.7934V18.7315L17.1176 20.9089V23.3414L14.7647 21.7934ZM18.8824 23.3499V20.9089L21.2353 18.7315V21.7849L18.8824 23.3499Z" fill="white"/>
</svg>
